<?xml version="1.0" encoding="UTF-8"?>
<svg version="1.1" xmlns="http://www.w3.org/2000/svg" width="306" height="303">
<path d="M0 0 C100.98 0 201.96 0 306 0 C306 99.99 306 199.98 306 303 C205.02 303 104.04 303 0 303 C0 203.01 0 103.02 0 0 Z " fill="#0C1124" transform="translate(0,0)"/>
<path d="M0 0 C100.98 0 201.96 0 306 0 C306 99.99 306 199.98 306 303 C205.02 303 104.04 303 0 303 C0 203.01 0 103.02 0 0 Z M8 7 C8 91.48 8 175.96 8 263 C103.7 263 199.4 263 298 263 C298 178.52 298 94.04 298 7 C202.3 7 106.6 7 8 7 Z " fill="#223FBF" transform="translate(0,0)"/>
<path d="M0 0 C4.5 3 4.5 3 6 6 C6.80140187 12.7546729 6.80140187 12.7546729 4.66015625 16.08203125 C3.16984062 17.80378413 1.64853206 19.42996947 0 21 C-3.30700371 20.72441636 -4.66529392 20.36709699 -6.9375 17.875 C-7.618125 16.92625 -8.29875 15.9775 -9 15 C-9.9620313 13.75737623 -10.94222739 12.5286622 -11.9375 11.3125 C-12.40027344 10.73113281 -12.86304688 10.14976563 -13.33984375 9.55078125 C-18.62481256 4.61399862 -26.12921597 5.53021856 -32.8828125 5.68359375 C-37.68689858 5.94114794 -41.15717298 7.07945146 -45 10 C-46.051875 10.721875 -47.10375 11.44375 -48.1875 12.1875 C-67.99172722 31.99172722 -62.13648185 73.12142542 -62.13799477 98.6952858 C-62.13671198 101.20660954 -62.13379229 103.71792636 -62.13037109 106.22924805 C-62.12461455 110.49752311 -62.12800677 114.76573607 -62.13394356 119.03400898 C-62.13757099 122.36706505 -62.1364016 125.70010655 -62.13381577 129.03316307 C-62.13315564 130.60744421 -62.13394236 132.18172673 -62.13629532 133.75600624 C-62.78106471 150.54509631 -62.78106471 150.54509631 -56.4375 165.5 C-55.99003418 166.13728027 -55.54256836 166.77456055 -55.08154297 167.43115234 C-51.27363998 172.79468178 -47.20838609 177.94626124 -43 183 C-42.35804688 183.84949219 -41.71609375 184.69898438 -41.0546875 185.57421875 C-39.0136399 187.98389662 -37.14883848 189.49569049 -34.5 191.1875 C-33.7471875 191.67605469 -32.994375 192.16460937 -32.21875 192.66796875 C-31.4865625 193.10753906 -30.754375 193.54710937 -30 194 C-29.36964844 194.38414062 -28.73929688 194.76828125 -28.08984375 195.1640625 C-25.32803984 196.26878407 -23.02897432 196.22864908 -20.0625 196.1875 C-19.04285156 196.18105469 -18.02320313 196.17460937 -16.97265625 196.16796875 C-14.21625952 196.01221966 -11.68621605 195.61837386 -9 195 C-8.34 196.32 -7.68 197.64 -7 199 C-11.61401537 203.4549114 -17.0447993 205.03420559 -23 207 C-23.9178125 207.3609375 -24.835625 207.721875 -25.78125 208.09375 C-36.83535243 211.2060701 -50.73304695 209.87920794 -61 205 C-64.94893811 202.63277458 -68.47299361 199.95320983 -72 197 C-72.84304687 196.30777344 -73.68609375 195.61554688 -74.5546875 194.90234375 C-91.03856677 180.7549645 -101.72176759 161.70530877 -111.98828125 142.8515625 C-112.93824136 141.11302546 -113.90602254 139.38425981 -114.875 137.65625 C-124.36836149 120.40997663 -132.30150523 102.2256534 -139.96630859 84.10791016 C-142.54241115 78.02534627 -145.24646302 72.02311056 -148.07844543 66.0556488 C-150.13291328 61.72362086 -152.17437934 57.38551236 -154.21484375 53.046875 C-154.58089722 52.26876465 -154.94695068 51.4906543 -155.32409668 50.68896484 C-156.2161619 48.79268907 -157.10809483 46.89635106 -158 45 C-158.00879936 46.53404228 -158.00879936 46.53404228 -158.01777649 48.09907532 C-158.07543047 57.82067508 -158.14840684 67.54206025 -158.23571491 77.26344013 C-158.28010757 82.25918727 -158.3194286 87.25485865 -158.34643555 92.25073242 C-158.37278345 97.08793661 -158.41339762 101.92484417 -158.46318626 106.7618618 C-158.47964529 108.59102831 -158.49128804 110.42024586 -158.49761391 112.24947548 C-158.58148757 134.31000443 -160.14793135 157.50023024 -175.4375 174.75 C-185.94772244 183.978488 -197.00894442 187.40653498 -210.875 187.25 C-211.75124023 187.24250732 -212.62748047 187.23501465 -213.53027344 187.22729492 C-223.07949753 187.06884932 -232.5565242 186.75322867 -240 180 C-242.28065579 176.26122002 -242.45197635 173.36910471 -242 169 C-240.15964266 165.17771936 -239.00063511 163.45681168 -235.125 161.6875 C-231.51814699 162.0481853 -231.15225341 162.49695756 -228.875 165.125 C-227.8946142 166.40000951 -226.93483731 167.69122777 -226 169 C-222.9952679 173.13150663 -220.74007383 175.02496924 -216 177 C-207.206342 178.08455115 -198.71698504 177.60626239 -191 173 C-188.1028059 170.68726558 -188.1028059 170.68726558 -186 168 C-185.319375 167.319375 -184.63875 166.63875 -183.9375 165.9375 C-181.37029184 162.04528118 -180.19089677 157.98619661 -178.83203125 153.546875 C-178 151 -178 151 -177 150 C-172.53728318 126.34218787 -173.60273143 101.69761458 -173.73571777 77.75720215 C-173.75487252 73.64024242 -173.75887603 69.52332752 -173.7624321 65.40632915 C-173.76762005 60.42060603 -173.78208478 55.43492095 -173.796875 50.44921875 C-173.79969608 49.06762353 -173.79969608 49.06762353 -173.80257416 47.65811729 C-173.82628122 38.69330361 -173.91655363 29.73839991 -174.38769531 20.78442383 C-174.48936005 18.85110954 -174.48936005 18.85110954 -174.59307861 16.8787384 C-174.72736267 15.92875473 -174.86164673 14.97877106 -175 14 C-180.81257021 11.09371489 -190.13544735 12.4697867 -196.25 14.125 C-206.71226982 17.81857637 -213.89548787 23.8432318 -220 33 C-221.74826241 39.29374468 -221.36388637 44.94254119 -219 51 C-213.52026754 51.5053032 -209.42061588 51.71478477 -204.8125 48.4375 C-201.81649604 46.31306083 -201.14677433 46.00489248 -197.25 45.875 C-193.25479411 47.25795589 -192.04290589 48.30705474 -190 52 C-188.71426283 57.60214054 -188.49594259 62.70661283 -191 68 C-194.32284641 72.34788901 -197.70083574 75.41100025 -203 77 C-211.19260308 77.73545289 -219.35413761 78.46437574 -226 73 C-231.22952848 68.62179011 -233.87607986 63.37176043 -236 57 C-237.00495838 42.13821166 -233.88626247 31.5191827 -224.33984375 19.99609375 C-222.64156968 18.2014637 -220.88882963 16.59261806 -219 15 C-218.29488281 14.40445313 -217.58976562 13.80890625 -216.86328125 13.1953125 C-209.90756241 7.83768443 -202.37857853 5.2944415 -194 3 C-193.0087915 2.71854126 -193.0087915 2.71854126 -191.99755859 2.43139648 C-185.27429214 0.70328167 -178.66140746 0.66819439 -171.75 0.6875 C-170.61175781 0.67138672 -169.47351563 0.65527344 -168.30078125 0.63867188 C-156.55249265 0.63200429 -144.21709429 1.88348424 -135.4934082 10.4855957 C-131.53882094 14.94747305 -129.02742492 19.50494891 -126.625 24.9375 C-123.61374187 31.59122229 -120.45193429 38.14727774 -117.17227173 44.67176819 C-113.38528797 52.20904501 -109.68245177 59.7861965 -106 67.375 C-105.65138916 68.09267548 -105.30277832 68.81035095 -104.94360352 69.54977417 C-100.67532775 78.34533844 -96.49613696 87.16062628 -92.60253906 96.12988281 C-89.65553059 102.88910696 -86.35849503 109.46098164 -83.00396729 116.02552795 C-81.95493468 118.08862861 -80.91789322 120.15740666 -79.88378906 122.22802734 C-79.52931702 122.9376059 -79.17484497 123.64718445 -78.80963135 124.37826538 C-78.542453 124.91343781 -78.27527466 125.44861023 -78 126 C-77.99635437 125.09227844 -77.99270874 124.18455688 -77.98895264 123.24932861 C-77.95073846 114.60225629 -77.89351649 105.95554841 -77.81609726 97.30873489 C-77.77695543 92.8656412 -77.74460692 88.42273584 -77.72900391 83.97949219 C-77.58654371 46.13747288 -77.58654371 46.13747288 -73 30 C-72.68925537 28.8874585 -72.37851074 27.77491699 -72.05834961 26.62866211 C-69.25124409 17.28323048 -62.58161555 7.00211815 -54 2 C-37.8274203 -4.79878207 -16.27052518 -8.6658232 0 0 Z " fill="#E4F489" transform="translate(271,32)"/>
<path d="M0 0 C100.98 0 201.96 0 306 0 C306 99.99 306 199.98 306 303 C205.02 303 104.04 303 0 303 C0 203.01 0 103.02 0 0 Z M4 3 C4 100.35 4 197.7 4 298 C102.34 298 200.68 298 302 298 C302 200.65 302 103.3 302 3 C203.66 3 105.32 3 4 3 Z " fill="#0C132E" transform="translate(0,0)"/>
<path d="M0 0 C0 2.97 0 5.94 0 9 C0.66 9 1.32 9 2 9 C2 10.32 2 11.64 2 13 C-1.3 13 -4.6 13 -8 13 C-8 11.68 -8 10.36 -8 9 C-7.34 9 -6.68 9 -6 9 C-6.33 7.35 -6.66 5.7 -7 4 C-7.99 3.67 -8.98 3.34 -10 3 C-10.12375 3.639375 -10.2475 4.27875 -10.375 4.9375 C-10.58125 5.618125 -10.7875 6.29875 -11 7 C-11.99 7.495 -11.99 7.495 -13 8 C-11.68 8.99 -10.36 9.98 -9 11 C-9.48036952 15.56351039 -9.48036952 15.56351039 -11.5625 17.3125 C-15.18636343 18.33461533 -18.2305351 18.24319128 -22 18 C-22.66 17.34 -23.32 16.68 -24 16 C-23.94140625 13.87109375 -23.94140625 13.87109375 -23.5625 11.4375 C-23.33844108 9.96342813 -23.14232008 8.48419516 -23 7 C-23.33 6.67 -23.66 6.34 -24 6 C-24.25 3.5625 -24.25 3.5625 -24 1 C-17.5533879 -3.2977414 -7.42555176 -1.16479243 0 0 Z " fill="#C8DA93" transform="translate(182,277)"/>
<path d="M0 0 C1.89551022 -0.05441656 3.7914792 -0.09298035 5.6875 -0.125 C6.74324219 -0.14820313 7.79898438 -0.17140625 8.88671875 -0.1953125 C12.91595336 0.05746257 15.79186444 0.91684398 18.8125 3.625 C20.53406432 7.06812863 20.80372839 10.2836779 20 14 C17.46546343 17.21954645 15.88702695 18.70432435 12 20 C9.93854893 20.068991 7.87498599 20.08467727 5.8125 20.0625 C4.18248047 20.04896484 4.18248047 20.04896484 2.51953125 20.03515625 C1.68808594 20.02355469 0.85664062 20.01195312 0 20 C0 18.35 0 16.7 0 15 C0.66 15 1.32 15 2 15 C2 11.37 2 7.74 2 4 C1.34 4 0.68 4 0 4 C0 2.68 0 1.36 0 0 Z " fill="#DBEC8E" transform="translate(125,270)"/>
<path d="M0 0 C1.74216797 0.05414063 1.74216797 0.05414063 3.51953125 0.109375 C4.39996094 0.15578125 5.28039062 0.2021875 6.1875 0.25 C6.1875 2.56 6.1875 4.87 6.1875 7.25 C3.74763011 6.77558085 1.3731158 6.30833639 -1 5.5625 C-1.598125 5.459375 -2.19625 5.35625 -2.8125 5.25 C-5.22371859 7.20633975 -5.22371859 7.20633975 -4.9375 10.875 C-4.89625 11.98875 -4.855 13.1025 -4.8125 14.25 C-1.8425 14.745 -1.8425 14.745 1.1875 15.25 C1.1875 14.59 1.1875 13.93 1.1875 13.25 C0.5275 13.25 -0.1325 13.25 -0.8125 13.25 C-0.8125 11.93 -0.8125 10.61 -0.8125 9.25 C1.8275 9.25 4.4675 9.25 7.1875 9.25 C7.1875 12.22 7.1875 15.19 7.1875 18.25 C2.55639394 20.56555303 -0.72642834 21.01155084 -5.8125 20.25 C-8.68279869 18.45606332 -10.30381638 17.26736724 -11.8125 14.25 C-12.0859375 12.0078125 -12.0859375 12.0078125 -12.1875 9.375 C-12.23648438 8.51132812 -12.28546875 7.64765625 -12.3359375 6.7578125 C-11.8125 4.25 -11.8125 4.25 -9.71484375 1.9453125 C-6.18596689 -0.11596954 -4.0539037 -0.16379409 0 0 Z " fill="#DEEF8D" transform="translate(94.8125,269.75)"/>
<path d="M0 0 C1.43655854 -0.08131463 2.8744483 -0.13933559 4.3125 -0.1875 C5.51326172 -0.23970703 5.51326172 -0.23970703 6.73828125 -0.29296875 C9 0 9 0 10.78125 1.28125 C12.73204891 4.03237667 12.18445865 6.74123057 12 10 C12.66 10 13.32 10 14 10 C14 11.32 14 12.64 14 14 C3.625 14 3.625 14 -1 13 C-1.625 10.625 -1.625 10.625 -2 8 C0 6 0 6 3.125 5.875 C4.07375 5.91625 5.0225 5.9575 6 6 C6 5.34 6 4.68 6 4 C3.69 4.33 1.38 4.66 -1 5 C-0.67 3.35 -0.34 1.7 0 0 Z " fill="#DBEB8E" transform="translate(199,276)"/>
<path d="M0 0 C2.375 1 2.375 1 4 3 C4.62364822 5.79767427 4.66190138 8.20724067 4 11 C1.9375 13.0625 1.9375 13.0625 -1 14 C-7.32142857 13.67857143 -7.32142857 13.67857143 -10 11 C-10.43244601 7.10798594 -10.57846465 4.86769698 -8.375 1.5625 C-5.30182885 -0.45932313 -3.61752119 -0.52755517 0 0 Z " fill="#CADC92" transform="translate(114,276)"/>
<path d="M0 0 C2.64 0 5.28 0 8 0 C8 4.95 8 9.9 8 15 C8.66 15 9.32 15 10 15 C10 16.32 10 17.64 10 19 C6.7 19 3.4 19 0 19 C0 17.68 0 16.36 0 15 C0.66 15 1.32 15 2 15 C2 11.37 2 7.74 2 4 C1.34 4 0.68 4 0 4 C0 2.68 0 1.36 0 0 Z " fill="#DBEC8E" transform="translate(214,271)"/>
<path d="M0 0 C0 0.99 0 1.98 0 3 C0.99 3 1.98 3 3 3 C3 4.32 3 5.64 3 7 C2.01 7 1.02 7 0 7 C0 8.98 0 10.96 0 13 C0.99 13 1.98 13 3 13 C3 14.32 3 15.64 3 17 C-2.36842105 17.35789474 -2.36842105 17.35789474 -4.875 15.9375 C-6.58196395 12.99772876 -6.18799766 10.32129197 -6 7 C-6.66 7 -7.32 7 -8 7 C-8 6.01 -8 5.02 -8 4 C-7.34 4 -6.68 4 -6 4 C-6 3.01 -6 2.02 -6 1 C-4 0 -4 0 0 0 Z " fill="#DCED8E" transform="translate(193,273)"/>
<path d="M0 0 C2.64 0 5.28 0 8 0 C8 2.97 8 5.94 8 9 C8.66 9 9.32 9 10 9 C10 10.32 10 11.64 10 13 C6.7 13 3.4 13 0 13 C0 11.68 0 10.36 0 9 C0.66 9 1.32 9 2 9 C2 7.02 2 5.04 2 3 C1.34 3 0.68 3 0 3 C0 2.01 0 1.02 0 0 Z " fill="#DBEC8E" transform="translate(147,277)"/>
<path d="M0 0 C2.31 0 4.62 0 7 0 C7 2.97 7 5.94 7 9 C7.66 9 8.32 9 9 9 C9 10.32 9 11.64 9 13 C5.7 13 2.4 13 -1 13 C-1 11.68 -1 10.36 -1 9 C-0.34 9 0.32 9 1 9 C0.67 6.03 0.34 3.06 0 0 Z " fill="#D8E98F" transform="translate(175,277)"/>
<path d="M0 0 C2.38662046 0.91253135 4.76628886 1.82970369 7.125 2.8125 C4.47761084 4.2731285 3.23051666 4.8125 0.125 4.8125 C0.125 6.1325 0.125 7.4525 0.125 8.8125 C0.785 8.8125 1.445 8.8125 2.125 8.8125 C2.125 9.4725 2.125 10.1325 2.125 10.8125 C-0.845 10.3175 -0.845 10.3175 -3.875 9.8125 C-5.21054084 3.37762141 -5.21054084 3.37762141 -3.6875 0.8125 C-1.875 -0.1875 -1.875 -0.1875 0 0 Z " fill="#334FBB" transform="translate(93.875,274.1875)"/>
<path d="M0 0 C2.4164124 0.48328248 4.65832183 1.21944061 7 2 C6.67 3.65 6.34 5.3 6 7 C3.125 7.625 3.125 7.625 0 8 C-0.66 7.34 -1.32 6.68 -2 6 C-1.44444444 1.44444444 -1.44444444 1.44444444 0 0 Z " fill="#C5D794" transform="translate(199,282)"/>
<path d="M0 0 C0.66 0.99 1.32 1.98 2 3 C5.08365871 3.2502157 5.08365871 3.2502157 8 3 C8 3.66 8 4.32 8 5 C6.329375 5.4021875 6.329375 5.4021875 4.625 5.8125 C0.78159049 6.65809019 0.78159049 6.65809019 -1 10 C-1.99 9.67 -2.98 9.34 -4 9 C-4 7.02 -4 5.04 -4 3 C-2.68 3 -1.36 3 0 3 C0 2.01 0 1.02 0 0 Z " fill="#2D49BC" transform="translate(197,277)"/>
<path d="M0 0 C1.32 0.33 2.64 0.66 4 1 C4 2.65 4 4.3 4 6 C3.34 6 2.68 6 2 6 C2 7.65 2 9.3 2 11 C1.608125 10.360625 1.21625 9.72125 0.8125 9.0625 C-1.38472296 6.56221181 -2.75791433 6.35049575 -6 6 C-3 4 -3 4 -1 3 C-0.67 2.01 -0.34 1.02 0 0 Z " fill="#2C48BD" transform="translate(172,280)"/>
<path d="M0 0 C1.32 0.33 2.64 0.66 4 1 C4 3.64 4 6.28 4 9 C2.68 9.33 1.36 9.66 0 10 C0 6.7 0 3.4 0 0 Z " fill="#2642BE" transform="translate(134,275)"/>
<path d="M0 0 C1.2065625 0.0309375 1.2065625 0.0309375 2.4375 0.0625 C2.7675 1.7125 3.0975 3.3625 3.4375 5.0625 C1.4575 5.0625 -0.5225 5.0625 -2.5625 5.0625 C-3.125 3.125 -3.125 3.125 -3.5625 1.0625 C-2.5625 0.0625 -2.5625 0.0625 0 0 Z " fill="#DAEB8E" transform="translate(151.5625,269.9375)"/>
<path d="M0 0 C1.2065625 0.0309375 1.2065625 0.0309375 2.4375 0.0625 C3 2 3 2 3.4375 4.0625 C2.4375 5.0625 2.4375 5.0625 -0.125 5.125 C-1.3315625 5.0940625 -1.3315625 5.0940625 -2.5625 5.0625 C-3.125 3.125 -3.125 3.125 -3.5625 1.0625 C-2.5625 0.0625 -2.5625 0.0625 0 0 Z " fill="#E0F08D" transform="translate(179.5625,269.9375)"/>
</svg>
